<mxfile host="app.diagrams.net" modified="2023-05-28T13:06:10.871Z" agent="Mozilla/5.0 (Macintosh; Intel Mac OS X 10_15_7) AppleWebKit/537.36 (KHTML, like Gecko) Chrome/112.0.0.0 Safari/537.36" etag="ZO9hQR8eJZ7yORAr0ehj" version="21.3.5" type="github">
  <diagram name="Page-1" id="74e2e168-ea6b-b213-b513-2b3c1d86103e">
    <mxGraphModel dx="1735" dy="1920" grid="1" gridSize="10" guides="1" tooltips="1" connect="1" arrows="1" fold="1" page="0" pageScale="1" pageWidth="1100" pageHeight="850" background="none" math="0" shadow="0">
      <root>
        <mxCell id="0" />
        <mxCell id="1" parent="0" />
        <mxCell id="TfXch8GAIewwacEi9W_L-10" value="部署流程具体执行逻辑" style="swimlane;startSize=20;horizontal=1;containerType=tree;align=center;" vertex="1" parent="1">
          <mxGeometry x="310" y="-410" width="1475" height="970" as="geometry" />
        </mxCell>
        <mxCell id="TfXch8GAIewwacEi9W_L-11" value="" style="edgeStyle=elbowEdgeStyle;elbow=vertical;sourcePerimeterSpacing=0;targetPerimeterSpacing=0;startArrow=none;endArrow=classic;rounded=0;curved=0;strokeColor=default;startFill=0;endFill=1;" edge="1" parent="TfXch8GAIewwacEi9W_L-10" source="TfXch8GAIewwacEi9W_L-12" target="TfXch8GAIewwacEi9W_L-13">
          <mxGeometry relative="1" as="geometry" />
        </mxCell>
        <mxCell id="TfXch8GAIewwacEi9W_L-12" value="web部署请求" style="whiteSpace=wrap;html=1;treeFolding=1;treeMoving=1;newEdgeStyle={&quot;edgeStyle&quot;:&quot;elbowEdgeStyle&quot;,&quot;startArrow&quot;:&quot;none&quot;,&quot;endArrow&quot;:&quot;none&quot;};" vertex="1" parent="TfXch8GAIewwacEi9W_L-10">
          <mxGeometry x="645" y="50" width="120" height="40" as="geometry" />
        </mxCell>
        <mxCell id="TfXch8GAIewwacEi9W_L-46" style="edgeStyle=elbowEdgeStyle;rounded=0;orthogonalLoop=1;jettySize=auto;html=1;startArrow=none;endArrow=classic;exitX=0.5;exitY=1;exitDx=0;exitDy=0;entryX=0.5;entryY=0;entryDx=0;entryDy=0;endFill=1;" edge="1" parent="TfXch8GAIewwacEi9W_L-10" source="TfXch8GAIewwacEi9W_L-13" target="TfXch8GAIewwacEi9W_L-18">
          <mxGeometry relative="1" as="geometry" />
        </mxCell>
        <mxCell id="TfXch8GAIewwacEi9W_L-13" value="更新流程部署状态" style="whiteSpace=wrap;html=1;treeFolding=1;treeMoving=1;newEdgeStyle={&quot;edgeStyle&quot;:&quot;elbowEdgeStyle&quot;,&quot;startArrow&quot;:&quot;none&quot;,&quot;endArrow&quot;:&quot;none&quot;};" vertex="1" parent="TfXch8GAIewwacEi9W_L-10">
          <mxGeometry x="645" y="130" width="120" height="40" as="geometry" />
        </mxCell>
        <mxCell id="TfXch8GAIewwacEi9W_L-16" value="cooridinator" style="rounded=0;whiteSpace=wrap;html=1;strokeColor=none;fillColor=none;" vertex="1" parent="TfXch8GAIewwacEi9W_L-10">
          <mxGeometry x="110" y="130" width="60" height="30" as="geometry" />
        </mxCell>
        <mxCell id="TfXch8GAIewwacEi9W_L-48" style="edgeStyle=elbowEdgeStyle;rounded=0;orthogonalLoop=1;jettySize=auto;html=1;startArrow=none;endArrow=classic;exitX=0.5;exitY=1;exitDx=0;exitDy=0;entryX=0.5;entryY=0;entryDx=0;entryDy=0;endFill=1;" edge="1" parent="TfXch8GAIewwacEi9W_L-10" source="TfXch8GAIewwacEi9W_L-18" target="TfXch8GAIewwacEi9W_L-20">
          <mxGeometry relative="1" as="geometry" />
        </mxCell>
        <mxCell id="TfXch8GAIewwacEi9W_L-18" value="根据租户信息转发到所有可用worker" style="whiteSpace=wrap;html=1;treeFolding=1;treeMoving=1;newEdgeStyle={&quot;edgeStyle&quot;:&quot;elbowEdgeStyle&quot;,&quot;startArrow&quot;:&quot;none&quot;,&quot;endArrow&quot;:&quot;none&quot;};" vertex="1" parent="TfXch8GAIewwacEi9W_L-10">
          <mxGeometry x="645" y="220" width="120" height="40" as="geometry" />
        </mxCell>
        <mxCell id="TfXch8GAIewwacEi9W_L-49" style="edgeStyle=elbowEdgeStyle;rounded=0;orthogonalLoop=1;jettySize=auto;html=1;startArrow=none;endArrow=none;exitX=0.5;exitY=1;exitDx=0;exitDy=0;entryX=0.5;entryY=0;entryDx=0;entryDy=0;" edge="1" parent="TfXch8GAIewwacEi9W_L-10" source="TfXch8GAIewwacEi9W_L-20" target="TfXch8GAIewwacEi9W_L-38">
          <mxGeometry relative="1" as="geometry" />
        </mxCell>
        <mxCell id="TfXch8GAIewwacEi9W_L-20" value="获取最新版本的流程" style="whiteSpace=wrap;html=1;treeFolding=1;treeMoving=1;newEdgeStyle={&quot;edgeStyle&quot;:&quot;elbowEdgeStyle&quot;,&quot;startArrow&quot;:&quot;none&quot;,&quot;endArrow&quot;:&quot;none&quot;};" vertex="1" parent="TfXch8GAIewwacEi9W_L-10">
          <mxGeometry x="645" y="330" width="120" height="40" as="geometry" />
        </mxCell>
        <mxCell id="TfXch8GAIewwacEi9W_L-55" style="edgeStyle=elbowEdgeStyle;rounded=0;orthogonalLoop=1;jettySize=auto;html=1;startArrow=none;endArrow=classic;exitX=0;exitY=0.5;exitDx=0;exitDy=0;entryX=0;entryY=0.5;entryDx=0;entryDy=0;endFill=1;" edge="1" parent="TfXch8GAIewwacEi9W_L-10" source="TfXch8GAIewwacEi9W_L-22" target="TfXch8GAIewwacEi9W_L-52">
          <mxGeometry relative="1" as="geometry">
            <mxPoint x="425" y="210" as="targetPoint" />
            <Array as="points">
              <mxPoint x="355" y="310" />
            </Array>
          </mxGeometry>
        </mxCell>
        <mxCell id="TfXch8GAIewwacEi9W_L-57" value="解析失败" style="edgeLabel;html=1;align=center;verticalAlign=middle;resizable=0;points=[];" vertex="1" connectable="0" parent="TfXch8GAIewwacEi9W_L-55">
          <mxGeometry x="-0.7955" y="1" relative="1" as="geometry">
            <mxPoint as="offset" />
          </mxGeometry>
        </mxCell>
        <mxCell id="TfXch8GAIewwacEi9W_L-22" value="解析流程json，进行必要的校验，生成主连线信息和子连线传参信息" style="whiteSpace=wrap;html=1;treeFolding=1;treeMoving=1;newEdgeStyle={&quot;edgeStyle&quot;:&quot;elbowEdgeStyle&quot;,&quot;startArrow&quot;:&quot;none&quot;,&quot;endArrow&quot;:&quot;none&quot;};" vertex="1" parent="TfXch8GAIewwacEi9W_L-10">
          <mxGeometry x="445" y="450" width="150" height="60" as="geometry" />
        </mxCell>
        <mxCell id="TfXch8GAIewwacEi9W_L-23" value="" style="edgeStyle=elbowEdgeStyle;elbow=vertical;sourcePerimeterSpacing=0;targetPerimeterSpacing=0;startArrow=none;endArrow=none;rounded=0;curved=0;" edge="1" target="TfXch8GAIewwacEi9W_L-24" source="TfXch8GAIewwacEi9W_L-22" parent="TfXch8GAIewwacEi9W_L-10">
          <mxGeometry relative="1" as="geometry">
            <mxPoint x="535" y="430" as="sourcePoint" />
          </mxGeometry>
        </mxCell>
        <mxCell id="TfXch8GAIewwacEi9W_L-56" style="edgeStyle=elbowEdgeStyle;rounded=0;orthogonalLoop=1;jettySize=auto;html=1;startArrow=none;endArrow=none;exitX=0;exitY=0.5;exitDx=0;exitDy=0;entryX=0;entryY=0.5;entryDx=0;entryDy=0;" edge="1" parent="TfXch8GAIewwacEi9W_L-10" source="TfXch8GAIewwacEi9W_L-24" target="TfXch8GAIewwacEi9W_L-52">
          <mxGeometry relative="1" as="geometry">
            <Array as="points">
              <mxPoint x="355" y="410" />
            </Array>
          </mxGeometry>
        </mxCell>
        <mxCell id="TfXch8GAIewwacEi9W_L-66" value="创建节点失败" style="edgeLabel;html=1;align=center;verticalAlign=middle;resizable=0;points=[];" vertex="1" connectable="0" parent="TfXch8GAIewwacEi9W_L-56">
          <mxGeometry x="-0.8154" y="4" relative="1" as="geometry">
            <mxPoint as="offset" />
          </mxGeometry>
        </mxCell>
        <mxCell id="TfXch8GAIewwacEi9W_L-24" value="创建流程中节点，调用各个节点的CreateNode方法，生成节点" style="whiteSpace=wrap;html=1;treeFolding=1;treeMoving=1;newEdgeStyle={&quot;edgeStyle&quot;:&quot;elbowEdgeStyle&quot;,&quot;startArrow&quot;:&quot;none&quot;,&quot;endArrow&quot;:&quot;none&quot;};" vertex="1" parent="TfXch8GAIewwacEi9W_L-10">
          <mxGeometry x="445" y="530" width="150" height="50" as="geometry" />
        </mxCell>
        <mxCell id="TfXch8GAIewwacEi9W_L-25" value="" style="edgeStyle=elbowEdgeStyle;elbow=vertical;sourcePerimeterSpacing=0;targetPerimeterSpacing=0;startArrow=none;endArrow=none;rounded=0;curved=0;" edge="1" target="TfXch8GAIewwacEi9W_L-26" source="TfXch8GAIewwacEi9W_L-24" parent="TfXch8GAIewwacEi9W_L-10">
          <mxGeometry relative="1" as="geometry">
            <mxPoint x="535" y="550" as="sourcePoint" />
          </mxGeometry>
        </mxCell>
        <mxCell id="TfXch8GAIewwacEi9W_L-58" style="edgeStyle=elbowEdgeStyle;rounded=0;orthogonalLoop=1;jettySize=auto;html=1;startArrow=none;endArrow=none;exitX=0;exitY=0.5;exitDx=0;exitDy=0;entryX=0;entryY=0.5;entryDx=0;entryDy=0;" edge="1" parent="TfXch8GAIewwacEi9W_L-10" source="TfXch8GAIewwacEi9W_L-26" target="TfXch8GAIewwacEi9W_L-52">
          <mxGeometry relative="1" as="geometry">
            <Array as="points">
              <mxPoint x="355" y="420" />
            </Array>
          </mxGeometry>
        </mxCell>
        <mxCell id="TfXch8GAIewwacEi9W_L-67" value="流程或节点重复部署" style="edgeLabel;html=1;align=center;verticalAlign=middle;resizable=0;points=[];" vertex="1" connectable="0" parent="TfXch8GAIewwacEi9W_L-58">
          <mxGeometry x="-0.85" y="-1" relative="1" as="geometry">
            <mxPoint as="offset" />
          </mxGeometry>
        </mxCell>
        <mxCell id="TfXch8GAIewwacEi9W_L-26" value="内存中生成dag图，保存节点和流程的映射" style="whiteSpace=wrap;html=1;treeFolding=1;treeMoving=1;newEdgeStyle={&quot;edgeStyle&quot;:&quot;elbowEdgeStyle&quot;,&quot;startArrow&quot;:&quot;none&quot;,&quot;endArrow&quot;:&quot;none&quot;};" vertex="1" parent="TfXch8GAIewwacEi9W_L-10">
          <mxGeometry x="445" y="610" width="150" height="50" as="geometry" />
        </mxCell>
        <mxCell id="TfXch8GAIewwacEi9W_L-27" value="" style="edgeStyle=elbowEdgeStyle;elbow=vertical;sourcePerimeterSpacing=0;targetPerimeterSpacing=0;startArrow=none;endArrow=none;rounded=0;curved=0;" edge="1" target="TfXch8GAIewwacEi9W_L-28" source="TfXch8GAIewwacEi9W_L-26" parent="TfXch8GAIewwacEi9W_L-10">
          <mxGeometry relative="1" as="geometry">
            <mxPoint x="535" y="630" as="sourcePoint" />
          </mxGeometry>
        </mxCell>
        <mxCell id="TfXch8GAIewwacEi9W_L-65" style="edgeStyle=elbowEdgeStyle;rounded=0;orthogonalLoop=1;jettySize=auto;html=1;startArrow=none;endArrow=none;exitX=0;exitY=0.5;exitDx=0;exitDy=0;entryX=0;entryY=0.5;entryDx=0;entryDy=0;" edge="1" parent="TfXch8GAIewwacEi9W_L-10" source="TfXch8GAIewwacEi9W_L-28" target="TfXch8GAIewwacEi9W_L-52">
          <mxGeometry relative="1" as="geometry">
            <Array as="points">
              <mxPoint x="355" y="430" />
              <mxPoint x="405" y="250" />
              <mxPoint x="355" y="370" />
            </Array>
          </mxGeometry>
        </mxCell>
        <mxCell id="TfXch8GAIewwacEi9W_L-68" value="注册失败" style="edgeLabel;html=1;align=center;verticalAlign=middle;resizable=0;points=[];" vertex="1" connectable="0" parent="TfXch8GAIewwacEi9W_L-65">
          <mxGeometry x="-0.8657" relative="1" as="geometry">
            <mxPoint as="offset" />
          </mxGeometry>
        </mxCell>
        <mxCell id="TfXch8GAIewwacEi9W_L-28" value="触发节点handler注册到触发器中" style="whiteSpace=wrap;html=1;treeFolding=1;treeMoving=1;newEdgeStyle={&quot;edgeStyle&quot;:&quot;elbowEdgeStyle&quot;,&quot;startArrow&quot;:&quot;none&quot;,&quot;endArrow&quot;:&quot;none&quot;};" vertex="1" parent="TfXch8GAIewwacEi9W_L-10">
          <mxGeometry x="445" y="690" width="150" height="50" as="geometry" />
        </mxCell>
        <mxCell id="TfXch8GAIewwacEi9W_L-50" value="是" style="edgeStyle=orthogonalEdgeStyle;rounded=0;orthogonalLoop=1;jettySize=auto;html=1;exitX=0;exitY=0.5;exitDx=0;exitDy=0;entryX=0.5;entryY=0;entryDx=0;entryDy=0;" edge="1" parent="TfXch8GAIewwacEi9W_L-10" source="TfXch8GAIewwacEi9W_L-38" target="TfXch8GAIewwacEi9W_L-22">
          <mxGeometry relative="1" as="geometry" />
        </mxCell>
        <mxCell id="TfXch8GAIewwacEi9W_L-83" value="否" style="edgeStyle=orthogonalEdgeStyle;rounded=0;orthogonalLoop=1;jettySize=auto;html=1;exitX=1;exitY=0.5;exitDx=0;exitDy=0;entryX=0.5;entryY=0;entryDx=0;entryDy=0;" edge="1" parent="TfXch8GAIewwacEi9W_L-10" source="TfXch8GAIewwacEi9W_L-38" target="TfXch8GAIewwacEi9W_L-82">
          <mxGeometry relative="1" as="geometry" />
        </mxCell>
        <mxCell id="TfXch8GAIewwacEi9W_L-38" value="是否为实时流" style="rhombus;whiteSpace=wrap;html=1;" vertex="1" parent="TfXch8GAIewwacEi9W_L-10">
          <mxGeometry x="660" y="390" width="90" height="80" as="geometry" />
        </mxCell>
        <mxCell id="TfXch8GAIewwacEi9W_L-53" style="edgeStyle=orthogonalEdgeStyle;rounded=0;orthogonalLoop=1;jettySize=auto;html=1;exitX=0.5;exitY=0;exitDx=0;exitDy=0;entryX=0;entryY=0.5;entryDx=0;entryDy=0;" edge="1" parent="TfXch8GAIewwacEi9W_L-10" source="TfXch8GAIewwacEi9W_L-52" target="TfXch8GAIewwacEi9W_L-12">
          <mxGeometry relative="1" as="geometry" />
        </mxCell>
        <mxCell id="TfXch8GAIewwacEi9W_L-54" value="返回失败信息" style="edgeLabel;html=1;align=center;verticalAlign=middle;resizable=0;points=[];" vertex="1" connectable="0" parent="TfXch8GAIewwacEi9W_L-53">
          <mxGeometry x="-0.3769" y="2" relative="1" as="geometry">
            <mxPoint as="offset" />
          </mxGeometry>
        </mxCell>
        <mxCell id="TfXch8GAIewwacEi9W_L-52" value="回滚流程部署状态" style="rounded=0;whiteSpace=wrap;html=1;fillColor=#a20025;fontColor=#ffffff;strokeColor=#6F0000;" vertex="1" parent="TfXch8GAIewwacEi9W_L-10">
          <mxGeometry x="470" y="220" width="100" height="40" as="geometry" />
        </mxCell>
        <mxCell id="TfXch8GAIewwacEi9W_L-62" style="edgeStyle=elbowEdgeStyle;rounded=0;orthogonalLoop=1;jettySize=auto;html=1;startArrow=none;endArrow=none;exitX=0.5;exitY=0;exitDx=0;exitDy=0;entryX=1;entryY=0.5;entryDx=0;entryDy=0;" edge="1" parent="TfXch8GAIewwacEi9W_L-10" source="TfXch8GAIewwacEi9W_L-61" target="TfXch8GAIewwacEi9W_L-12">
          <mxGeometry relative="1" as="geometry">
            <Array as="points">
              <mxPoint x="1260" y="100" />
              <mxPoint x="965" y="170" />
              <mxPoint x="735" y="150" />
            </Array>
          </mxGeometry>
        </mxCell>
        <mxCell id="TfXch8GAIewwacEi9W_L-64" value="回复部署成功" style="edgeLabel;html=1;align=center;verticalAlign=middle;resizable=0;points=[];" vertex="1" connectable="0" parent="TfXch8GAIewwacEi9W_L-62">
          <mxGeometry x="-0.38" y="-4" relative="1" as="geometry">
            <mxPoint as="offset" />
          </mxGeometry>
        </mxCell>
        <mxCell id="TfXch8GAIewwacEi9W_L-61" value="所有worker部署成功，commit流程部署状态" style="whiteSpace=wrap;html=1;treeFolding=1;treeMoving=1;newEdgeStyle={&quot;edgeStyle&quot;:&quot;elbowEdgeStyle&quot;,&quot;startArrow&quot;:&quot;none&quot;,&quot;endArrow&quot;:&quot;none&quot;};" vertex="1" parent="TfXch8GAIewwacEi9W_L-10">
          <mxGeometry x="1200" y="220" width="120" height="40" as="geometry" />
        </mxCell>
        <mxCell id="TfXch8GAIewwacEi9W_L-71" style="edgeStyle=elbowEdgeStyle;rounded=0;orthogonalLoop=1;jettySize=auto;html=1;startArrow=none;endArrow=none;exitX=0.5;exitY=0;exitDx=0;exitDy=0;entryX=0;entryY=0.5;entryDx=0;entryDy=0;" edge="1" parent="TfXch8GAIewwacEi9W_L-10" source="TfXch8GAIewwacEi9W_L-70" target="TfXch8GAIewwacEi9W_L-12">
          <mxGeometry relative="1" as="geometry">
            <Array as="points">
              <mxPoint x="260" y="160" />
            </Array>
          </mxGeometry>
        </mxCell>
        <mxCell id="TfXch8GAIewwacEi9W_L-72" value="返回部署成功" style="edgeLabel;html=1;align=center;verticalAlign=middle;resizable=0;points=[];" vertex="1" connectable="0" parent="TfXch8GAIewwacEi9W_L-71">
          <mxGeometry x="-0.7047" relative="1" as="geometry">
            <mxPoint as="offset" />
          </mxGeometry>
        </mxCell>
        <mxCell id="TfXch8GAIewwacEi9W_L-70" value="所有worker部署成功，commit流程部署状态" style="whiteSpace=wrap;html=1;treeFolding=1;treeMoving=1;newEdgeStyle={&quot;edgeStyle&quot;:&quot;elbowEdgeStyle&quot;,&quot;startArrow&quot;:&quot;none&quot;,&quot;endArrow&quot;:&quot;none&quot;};" vertex="1" parent="TfXch8GAIewwacEi9W_L-10">
          <mxGeometry x="200" y="220" width="120" height="40" as="geometry" />
        </mxCell>
        <mxCell id="TfXch8GAIewwacEi9W_L-73" value="" style="edgeStyle=elbowEdgeStyle;elbow=vertical;sourcePerimeterSpacing=0;targetPerimeterSpacing=0;startArrow=none;endArrow=none;rounded=0;curved=0;" edge="1" target="TfXch8GAIewwacEi9W_L-74" source="TfXch8GAIewwacEi9W_L-28" parent="TfXch8GAIewwacEi9W_L-10">
          <mxGeometry relative="1" as="geometry">
            <mxPoint x="475" y="730" as="sourcePoint" />
          </mxGeometry>
        </mxCell>
        <mxCell id="TfXch8GAIewwacEi9W_L-75" style="edgeStyle=elbowEdgeStyle;rounded=0;orthogonalLoop=1;jettySize=auto;html=1;startArrow=none;endArrow=none;exitX=0;exitY=0.5;exitDx=0;exitDy=0;entryX=0.5;entryY=1;entryDx=0;entryDy=0;" edge="1" parent="TfXch8GAIewwacEi9W_L-10" source="TfXch8GAIewwacEi9W_L-74" target="TfXch8GAIewwacEi9W_L-70">
          <mxGeometry relative="1" as="geometry">
            <Array as="points">
              <mxPoint x="260" y="550" />
            </Array>
          </mxGeometry>
        </mxCell>
        <mxCell id="TfXch8GAIewwacEi9W_L-74" value="流程创建成功" style="whiteSpace=wrap;html=1;treeFolding=1;treeMoving=1;newEdgeStyle={&quot;edgeStyle&quot;:&quot;elbowEdgeStyle&quot;,&quot;startArrow&quot;:&quot;none&quot;,&quot;endArrow&quot;:&quot;none&quot;};" vertex="1" parent="TfXch8GAIewwacEi9W_L-10">
          <mxGeometry x="445" y="790" width="150" height="50" as="geometry" />
        </mxCell>
        <mxCell id="TfXch8GAIewwacEi9W_L-86" style="edgeStyle=elbowEdgeStyle;rounded=0;orthogonalLoop=1;jettySize=auto;html=1;startArrow=none;endArrow=none;exitX=0.5;exitY=1;exitDx=0;exitDy=0;entryX=0.5;entryY=0;entryDx=0;entryDy=0;" edge="1" parent="TfXch8GAIewwacEi9W_L-10" source="TfXch8GAIewwacEi9W_L-82" target="TfXch8GAIewwacEi9W_L-85">
          <mxGeometry relative="1" as="geometry" />
        </mxCell>
        <mxCell id="TfXch8GAIewwacEi9W_L-129" style="edgeStyle=elbowEdgeStyle;rounded=0;orthogonalLoop=1;jettySize=auto;html=1;startArrow=none;endArrow=none;exitX=1;exitY=0.5;exitDx=0;exitDy=0;entryX=1;entryY=0.5;entryDx=0;entryDy=0;" edge="1" parent="TfXch8GAIewwacEi9W_L-10" source="TfXch8GAIewwacEi9W_L-82" target="TfXch8GAIewwacEi9W_L-107">
          <mxGeometry relative="1" as="geometry">
            <Array as="points">
              <mxPoint x="1110" y="310" />
              <mxPoint x="1050" y="360" />
            </Array>
          </mxGeometry>
        </mxCell>
        <mxCell id="TfXch8GAIewwacEi9W_L-82" value="解析流程json，转成离线DAG定义的连线信息" style="whiteSpace=wrap;html=1;treeFolding=1;treeMoving=1;newEdgeStyle={&quot;edgeStyle&quot;:&quot;elbowEdgeStyle&quot;,&quot;startArrow&quot;:&quot;none&quot;,&quot;endArrow&quot;:&quot;none&quot;};" vertex="1" parent="TfXch8GAIewwacEi9W_L-10">
          <mxGeometry x="815" y="450" width="150" height="50" as="geometry" />
        </mxCell>
        <mxCell id="TfXch8GAIewwacEi9W_L-130" style="edgeStyle=elbowEdgeStyle;rounded=0;orthogonalLoop=1;jettySize=auto;html=1;startArrow=none;endArrow=none;exitX=1;exitY=0.5;exitDx=0;exitDy=0;entryX=1;entryY=0.5;entryDx=0;entryDy=0;" edge="1" parent="TfXch8GAIewwacEi9W_L-10" source="TfXch8GAIewwacEi9W_L-85" target="TfXch8GAIewwacEi9W_L-107">
          <mxGeometry relative="1" as="geometry">
            <Array as="points">
              <mxPoint x="1110" y="400" />
            </Array>
          </mxGeometry>
        </mxCell>
        <mxCell id="TfXch8GAIewwacEi9W_L-131" value="转换失败t" style="edgeLabel;html=1;align=center;verticalAlign=middle;resizable=0;points=[];" vertex="1" connectable="0" parent="TfXch8GAIewwacEi9W_L-130">
          <mxGeometry x="-0.7871" y="-1" relative="1" as="geometry">
            <mxPoint as="offset" />
          </mxGeometry>
        </mxCell>
        <mxCell id="TfXch8GAIewwacEi9W_L-85" value="遍历所有节点调用BuildOfflineTaskConfig方法转换各个节点配置适配离线格式" style="whiteSpace=wrap;html=1;treeFolding=1;treeMoving=1;newEdgeStyle={&quot;edgeStyle&quot;:&quot;elbowEdgeStyle&quot;,&quot;startArrow&quot;:&quot;none&quot;,&quot;endArrow&quot;:&quot;none&quot;};" vertex="1" parent="TfXch8GAIewwacEi9W_L-10">
          <mxGeometry x="815" y="530" width="160" height="60" as="geometry" />
        </mxCell>
        <mxCell id="TfXch8GAIewwacEi9W_L-87" style="edgeStyle=elbowEdgeStyle;rounded=0;orthogonalLoop=1;jettySize=auto;html=1;startArrow=none;endArrow=none;exitX=0.5;exitY=1;exitDx=0;exitDy=0;entryX=0.5;entryY=0;entryDx=0;entryDy=0;" edge="1" target="TfXch8GAIewwacEi9W_L-88" source="TfXch8GAIewwacEi9W_L-85" parent="TfXch8GAIewwacEi9W_L-10">
          <mxGeometry relative="1" as="geometry">
            <mxPoint x="1030" y="560" as="sourcePoint" />
          </mxGeometry>
        </mxCell>
        <mxCell id="TfXch8GAIewwacEi9W_L-115" style="edgeStyle=elbowEdgeStyle;rounded=0;orthogonalLoop=1;jettySize=auto;html=1;startArrow=none;endArrow=none;exitX=1;exitY=0.5;exitDx=0;exitDy=0;entryX=1;entryY=0.5;entryDx=0;entryDy=0;" edge="1" parent="TfXch8GAIewwacEi9W_L-10" source="TfXch8GAIewwacEi9W_L-88" target="TfXch8GAIewwacEi9W_L-107">
          <mxGeometry relative="1" as="geometry">
            <mxPoint x="965" y="674.0625" as="targetPoint" />
            <Array as="points">
              <mxPoint x="1110" y="380" />
              <mxPoint x="1050" y="420" />
              <mxPoint x="1055" y="450" />
            </Array>
          </mxGeometry>
        </mxCell>
        <mxCell id="TfXch8GAIewwacEi9W_L-120" value="获取失败" style="edgeLabel;html=1;align=center;verticalAlign=middle;resizable=0;points=[];" vertex="1" connectable="0" parent="TfXch8GAIewwacEi9W_L-115">
          <mxGeometry x="-0.8468" y="3" relative="1" as="geometry">
            <mxPoint as="offset" />
          </mxGeometry>
        </mxCell>
        <mxCell id="TfXch8GAIewwacEi9W_L-88" value="获取离线任务调度配置" style="whiteSpace=wrap;html=1;treeFolding=1;treeMoving=1;newEdgeStyle={&quot;edgeStyle&quot;:&quot;elbowEdgeStyle&quot;,&quot;startArrow&quot;:&quot;none&quot;,&quot;endArrow&quot;:&quot;none&quot;};" vertex="1" parent="TfXch8GAIewwacEi9W_L-10">
          <mxGeometry x="815" y="610" width="150" height="50" as="geometry" />
        </mxCell>
        <mxCell id="TfXch8GAIewwacEi9W_L-89" style="edgeStyle=elbowEdgeStyle;rounded=0;orthogonalLoop=1;jettySize=auto;html=1;startArrow=none;endArrow=none;exitX=0.5;exitY=1;exitDx=0;exitDy=0;entryX=0.5;entryY=0;entryDx=0;entryDy=0;" edge="1" target="TfXch8GAIewwacEi9W_L-90" source="TfXch8GAIewwacEi9W_L-88" parent="TfXch8GAIewwacEi9W_L-10">
          <mxGeometry relative="1" as="geometry">
            <mxPoint x="1030" y="640" as="sourcePoint" />
          </mxGeometry>
        </mxCell>
        <mxCell id="TfXch8GAIewwacEi9W_L-116" style="edgeStyle=elbowEdgeStyle;rounded=0;orthogonalLoop=1;jettySize=auto;html=1;startArrow=none;endArrow=none;exitX=1;exitY=0.5;exitDx=0;exitDy=0;entryX=1;entryY=0.5;entryDx=0;entryDy=0;" edge="1" parent="TfXch8GAIewwacEi9W_L-10" source="TfXch8GAIewwacEi9W_L-90" target="TfXch8GAIewwacEi9W_L-107">
          <mxGeometry relative="1" as="geometry">
            <Array as="points">
              <mxPoint x="1110" y="290" />
              <mxPoint x="1050" y="460" />
              <mxPoint x="1055" y="430" />
            </Array>
          </mxGeometry>
        </mxCell>
        <mxCell id="TfXch8GAIewwacEi9W_L-119" value="注册失败" style="edgeLabel;html=1;align=center;verticalAlign=middle;resizable=0;points=[];" vertex="1" connectable="0" parent="TfXch8GAIewwacEi9W_L-116">
          <mxGeometry x="-0.8291" y="1" relative="1" as="geometry">
            <mxPoint as="offset" />
          </mxGeometry>
        </mxCell>
        <mxCell id="TfXch8GAIewwacEi9W_L-90" value="注册到离线任务调度器" style="whiteSpace=wrap;html=1;treeFolding=1;treeMoving=1;newEdgeStyle={&quot;edgeStyle&quot;:&quot;elbowEdgeStyle&quot;,&quot;startArrow&quot;:&quot;none&quot;,&quot;endArrow&quot;:&quot;none&quot;};" vertex="1" parent="TfXch8GAIewwacEi9W_L-10">
          <mxGeometry x="815" y="690" width="150" height="50" as="geometry" />
        </mxCell>
        <mxCell id="TfXch8GAIewwacEi9W_L-108" style="edgeStyle=orthogonalEdgeStyle;rounded=0;orthogonalLoop=1;jettySize=auto;html=1;exitX=0.5;exitY=0;exitDx=0;exitDy=0;entryX=1;entryY=0.5;entryDx=0;entryDy=0;" edge="1" parent="TfXch8GAIewwacEi9W_L-10" source="TfXch8GAIewwacEi9W_L-107" target="TfXch8GAIewwacEi9W_L-12">
          <mxGeometry relative="1" as="geometry" />
        </mxCell>
        <mxCell id="TfXch8GAIewwacEi9W_L-109" value="返回失败信息" style="edgeLabel;html=1;align=center;verticalAlign=middle;resizable=0;points=[];" vertex="1" connectable="0" parent="TfXch8GAIewwacEi9W_L-108">
          <mxGeometry x="-0.5448" y="3" relative="1" as="geometry">
            <mxPoint x="3" y="9" as="offset" />
          </mxGeometry>
        </mxCell>
        <mxCell id="TfXch8GAIewwacEi9W_L-107" value="回滚流程部署状态" style="rounded=0;whiteSpace=wrap;html=1;fillColor=#a20025;fontColor=#ffffff;strokeColor=#6F0000;" vertex="1" parent="TfXch8GAIewwacEi9W_L-10">
          <mxGeometry x="850" y="220" width="100" height="40" as="geometry" />
        </mxCell>
        <mxCell id="TfXch8GAIewwacEi9W_L-110" style="edgeStyle=elbowEdgeStyle;rounded=0;orthogonalLoop=1;jettySize=auto;html=1;startArrow=none;endArrow=none;exitX=0.5;exitY=1;exitDx=0;exitDy=0;entryX=0.5;entryY=0;entryDx=0;entryDy=0;" edge="1" target="TfXch8GAIewwacEi9W_L-111" source="TfXch8GAIewwacEi9W_L-90" parent="TfXch8GAIewwacEi9W_L-10">
          <mxGeometry relative="1" as="geometry">
            <mxPoint x="1080" y="700" as="sourcePoint" />
          </mxGeometry>
        </mxCell>
        <mxCell id="TfXch8GAIewwacEi9W_L-112" style="edgeStyle=elbowEdgeStyle;rounded=0;orthogonalLoop=1;jettySize=auto;html=1;startArrow=none;endArrow=classic;exitX=1;exitY=0.5;exitDx=0;exitDy=0;entryX=0.5;entryY=1;entryDx=0;entryDy=0;endFill=1;" edge="1" parent="TfXch8GAIewwacEi9W_L-10" source="TfXch8GAIewwacEi9W_L-111" target="TfXch8GAIewwacEi9W_L-61">
          <mxGeometry relative="1" as="geometry">
            <mxPoint x="1265" y="280" as="targetPoint" />
            <Array as="points">
              <mxPoint x="1260" y="520" />
            </Array>
          </mxGeometry>
        </mxCell>
        <mxCell id="TfXch8GAIewwacEi9W_L-111" value="流程创建成功" style="whiteSpace=wrap;html=1;treeFolding=1;treeMoving=1;newEdgeStyle={&quot;edgeStyle&quot;:&quot;elbowEdgeStyle&quot;,&quot;startArrow&quot;:&quot;none&quot;,&quot;endArrow&quot;:&quot;none&quot;};" vertex="1" parent="TfXch8GAIewwacEi9W_L-10">
          <mxGeometry x="815" y="790" width="150" height="50" as="geometry" />
        </mxCell>
        <mxCell id="TfXch8GAIewwacEi9W_L-122" value="" style="rounded=0;whiteSpace=wrap;html=1;fillColor=none;dashed=1;fontColor=#ffffff;strokeColor=#006EAF;backgroundOutline=0;pointerEvents=0;" vertex="1" parent="TfXch8GAIewwacEi9W_L-10">
          <mxGeometry x="110" y="130" width="1230" height="180" as="geometry" />
        </mxCell>
        <mxCell id="TfXch8GAIewwacEi9W_L-124" value="woker" style="rounded=0;whiteSpace=wrap;html=1;strokeColor=none;fillColor=none;" vertex="1" parent="TfXch8GAIewwacEi9W_L-10">
          <mxGeometry x="110" y="325" width="60" height="30" as="geometry" />
        </mxCell>
      </root>
    </mxGraphModel>
  </diagram>
</mxfile>
